<svg width="1024" height="1024" viewBox="0 0 1024 1024" fill="none" xmlns="http://www.w3.org/2000/svg" style="background: transparent;">
  <!-- 8 pointed star rays - sharp triangular points -->
  <!-- Top ray -->
  <path d="M512 64L576 320L512 352L448 320Z" fill="#22c55e"/>
  <!-- Bottom ray -->
  <path d="M512 960L448 704L512 672L576 704Z" fill="#22c55e"/>
  <!-- Right ray -->
  <path d="M960 512L704 448L672 512L704 576Z" fill="#22c55e"/>
  <!-- Left ray -->
  <path d="M64 512L320 576L352 512L320 448Z" fill="#22c55e"/>
  <!-- Top-right ray -->
  <path d="M822.11 201.89L635.2 388.8L603.2 356.8L646.4 313.6Z" fill="#22c55e"/>
  <!-- Bottom-left ray -->
  <path d="M201.89 822.11L388.8 635.2L420.8 667.2L377.6 710.4Z" fill="#22c55e"/>
  <!-- Bottom-right ray -->
  <path d="M822.11 822.11L635.2 635.2L667.2 603.2L710.4 646.4Z" fill="#22c55e"/>
  <!-- Top-left ray -->
  <path d="M201.89 201.89L388.8 388.8L356.8 420.8L313.6 377.6Z" fill="#22c55e"/>

  <!-- Main center circle -->
  <circle cx="512" cy="512" r="176" fill="#22c55e"/>

  <!-- Inner circle (hole in the center) -->
  <circle cx="512" cy="512" r="80" fill="#4ade80"/>
</svg>
