<svg width="32" height="32" viewBox="0 0 32 32" fill="none" xmlns="http://www.w3.org/2000/svg" style="background: transparent;">
  <!-- 8 pointed star rays - sharp triangular points -->
  <!-- Top ray -->
  <path d="M16 2L18 10L16 11L14 10Z" fill="#22c55e"/>
  <!-- Bottom ray -->
  <path d="M16 30L14 22L16 21L18 22Z" fill="#22c55e"/>
  <!-- Right ray -->
  <path d="M30 16L22 14L21 16L22 18Z" fill="#22c55e"/>
  <!-- Left ray -->
  <path d="M2 16L10 18L11 16L10 14Z" fill="#22c55e"/>
  <!-- Top-right ray -->
  <path d="M25.66 6.34L19.8 12.2L18.8 11.2L20.2 9.8Z" fill="#22c55e"/>
  <!-- Bottom-left ray -->
  <path d="M6.34 25.66L12.2 19.8L13.2 20.8L11.8 22.2Z" fill="#22c55e"/>
  <!-- Bottom-right ray -->
  <path d="M25.66 25.66L19.8 19.8L20.8 18.8L22.2 20.2Z" fill="#22c55e"/>
  <!-- Top-left ray -->
  <path d="M6.34 6.34L12.2 12.2L11.2 13.2L9.8 11.8Z" fill="#22c55e"/>

  <!-- Main center circle -->
  <circle cx="16" cy="16" r="5.5" fill="#22c55e"/>

  <!-- Inner circle (hole in the center) -->
  <circle cx="16" cy="16" r="2.5" fill="#4ade80"/>
</svg>
