<svg width="32" height="32" viewBox="0 0 32 32" fill="none" xmlns="http://www.w3.org/2000/svg" style="background: transparent;">
  <!-- Star-like sun rays (pointed triangular rays) -->
  <path d="M16 1L17.5 6L16 7L14.5 6Z" fill="#22c55e"/>
  <path d="M16 31L17.5 26L16 25L14.5 26Z" fill="#22c55e"/>
  <path d="M31 16L26 14.5L25 16L26 17.5Z" fill="#22c55e"/>
  <path d="M1 16L6 17.5L7 16L6 14.5Z" fill="#22c55e"/>
  <path d="M26.87 5.13L22.95 8.05L21.95 7.05L22.95 6.05Z" fill="#22c55e"/>
  <path d="M5.13 26.87L8.05 22.95L9.05 23.95L8.05 24.95Z" fill="#22c55e"/>
  <path d="M26.87 26.87L22.95 23.95L23.95 22.95L24.95 23.95Z" fill="#22c55e"/>
  <path d="M5.13 5.13L8.05 9.05L7.05 10.05L6.05 9.05Z" fill="#22c55e"/>

  <!-- Sun center circle -->
  <circle cx="16" cy="16" r="6" fill="#22c55e"/>

  <!-- Inner circle with gear-like teeth -->
  <circle cx="16" cy="16" r="4.5" fill="#4ade80"/>
  <circle cx="16" cy="16" r="3" fill="#22c55e"/>

  <!-- Small gear teeth around inner circle -->
  <path d="M16 10.5L16.8 11.3L16 12.1L15.2 11.3Z" fill="#4ade80"/>
  <path d="M21.5 16L20.7 16.8L19.9 16L20.7 15.2Z" fill="#4ade80"/>
  <path d="M16 21.5L15.2 20.7L16 19.9L16.8 20.7Z" fill="#4ade80"/>
  <path d="M10.5 16L11.3 15.2L12.1 16L11.3 16.8Z" fill="#4ade80"/>
</svg>
